# xmcd
#
# Track frame offsets: 
#        150
#        14972
#        32056
#        50875
#        68708
#        87824
#        105406
#        124008
#        139044
#        155684
#
# Disc length: 2308 seconds
#
# Revision: 0
# Processed by: cddbd v1.5.2PL0 Copyright (c) Steve Scherf et al.
# Submitted via: ExactAudioCopyFreeDBPlugin 1.0
#
DISCID=8809020a
DTITLE=Sean Paul - Tomahawk Technique
DYEAR=2012
DGENRE=Dance
TTITLE0=Got 2 Luv U (feat. Alexis Jordan)
TTITLE1=She Doesn't Mind
TTITLE2=Body
TTITLE3=What I Want
TTITLE4=Won't Stop (Turn Me Out)
TTITLE5=Dream Girl
TTITLE6=Hold On
TTITLE7=How Deep Is Your Love (feat. Kelly Rowland)
TTITLE8=Roll Wid Di Don
TTITLE9=Touch The Sky (feat. DJ Ammo)
EXTD=
EXTT0=
EXTT1=
EXTT2=
EXTT3=
EXTT4=
EXTT5=
EXTT6=
EXTT7=
EXTT8=
EXTT9=
PLAYORDER=
